# xmcd CD database file
#
# Track frame offsets:
#	150
#	30390
#	52494
#
# Disc length: 1102 seconds
#
# Revision: 0
# Processed by: cddbd v1.5.1PL0 Copyright (c) Steve Scherf et al.
# Submitted via: CDex 1.51
#
DISCID=23044c03
DTITLE=流浪の民 - 四面楚歌
DYEAR=1900
DGENRE=未分類 (日本)
TTITLE0=四面楚歌
TTITLE1=伝説時代
TTITLE2=四面楚歌 INSTRUMENTAL
EXTD=
EXTT0=
EXTT1=
EXTT2=
PLAYORDER=
